# xmcd CD database file
#
# Track frame offsets:
#	150
#	17865
#	39275
#
# Disc length: 774 seconds
#
# Revision: 0
# Processed by: cddbd v1.5.1PL0 Copyright (c) Steve Scherf et al.
# Submitted via: CDex 1.40Beta9
#
DISCID=19030403
DTITLE=つばき - もうすぐ
DYEAR=2005
DGENRE=J-Pop
TTITLE0=もうすぐ
TTITLE1=街風
TTITLE2=猫 (弾き語りヴァージョン)
EXTD=YEAR: 2005/07/13
EXTT0=
EXTT1=
EXTT2=
PLAYORDER=
